<svg version="1.1" viewBox="0.0 0.0 992.5380577427821 221.1942257217848" fill="none" stroke="none" stroke-linecap="square" stroke-miterlimit="10" xmlns:xlink="http://www.w3.org/1999/xlink" xmlns="http://www.w3.org/2000/svg"><clipPath id="p.0"><path d="m0 0l992.5381 0l0 221.19423l-992.5381 0l0 -221.19423z" clip-rule="nonzero"/></clipPath><g clip-path="url(#p.0)"><path fill="#000000" fill-opacity="0.0" d="m0 0l992.5381 0l0 221.19423l-992.5381 0z" fill-rule="evenodd"/><path fill="#000000" fill-opacity="0.0" d="m0.9212598 -30.75328l806.6457 0l0 289.3228l-806.6457 0z" fill-rule="evenodd"/><path fill="#c00000" d="m113.81188 72.23172l0 113.375l-39.125 0l0 -113.375l-61.499996 0l0 -31.546875l162.21875 0l0 31.546875l-61.593758 0zm220.95703 9.28125q-4.109375 -2.015625 -10.859375 -4.546875q-6.75 -2.53125 -15.296875 -4.796875q-8.546875 -2.265625 -18.5625 -3.796875q-10.015625 -1.53125 -20.5625 -1.53125q-8.4375 0 -14.40625 0.53125q-5.953125 0.53125 -10.015625 1.375q-4.0625 0.84375 -6.4375 1.953125q-2.375 1.109375 -3.640625 2.265625q-1.265625 1.15625 -1.640625 2.328125q-0.359375 1.15625 -0.359375 2.09375q0 3.171875 3.15625 5.546875q3.171875 2.375 8.65625 4.21875q5.484375 1.84375 12.765625 3.484375q7.28125 1.625 15.453125 3.375q8.171875 1.734375 16.875 3.796875q8.703125 2.046875 16.875 4.796875q8.171875 2.734375 15.4375 6.375q7.28125 3.640625 12.765625 8.5q5.484375 4.84375 8.640625 11.171875q3.171875 6.328125 3.171875 14.453125q0 10.4375 -3.6875 17.921875q-3.6875 7.484375 -9.859375 12.65625q-6.171875 5.171875 -14.296875 8.28125q-8.109375 3.109375 -17.03125 4.796875q-8.90625 1.6875 -18.03125 2.21875q-9.125 0.53125 -17.34375 0.53125q-21.515625 0 -39.828125 -3.546875q-18.296875 -3.53125 -32.3125 -8.796875l0 -34.59375q14.4375 8.015625 32.953125 12.546875q18.515625 4.53125 39.609375 4.53125q12.4375 0 20.296875 -1.3125q7.859375 -1.3125 12.28125 -3.375q4.4375 -2.0625 6.015625 -4.484375q1.578125 -2.421875 1.578125 -4.640625q0 -3.484375 -3.171875 -6.0625q-3.15625 -2.578125 -8.640625 -4.53125q-5.484375 -1.953125 -12.765625 -3.578125q-7.265625 -1.640625 -15.4375 -3.28125q-8.171875 -1.640625 -16.828125 -3.53125q-8.640625 -1.90625 -16.828125 -4.484375q-8.171875 -2.578125 -15.453125 -6.0q-7.265625 -3.4375 -12.75 -8.125q-5.484375 -4.703125 -8.65625 -10.875q-3.15625 -6.171875 -3.15625 -14.28125q0 -9.609375 3.375 -16.5625q3.375 -6.96875 9.125 -11.859375q5.75 -4.90625 13.28125 -7.96875q7.546875 -3.0625 15.875 -4.75q8.328125 -1.6875 16.875 -2.3125q8.546875 -0.640625 16.25 -0.640625q8.4375 0 17.34375 0.84375q8.90625 0.84375 17.546875 2.375q8.65625 1.53125 16.71875 3.53125q8.078125 2.0 14.9375 4.21875l0 33.546875zm187.73828 104.09375l0 -60.4375l-99.5625 0l0 60.4375l-39.140625 0l0 -144.92188l39.140625 0l0 52.734375l99.5625 0l0 -52.734375l39.125 0l0 144.92188l-39.125 0zm247.3125 -95.453125q0 10.859375 -3.171875 19.984375q-3.15625 9.125 -10.171875 15.71875q-7.0 6.59375 -18.1875 10.28125q-11.171875 3.6875 -27.203125 3.6875l-64.96875 0l0 45.78125l-39.140625 0l0 -144.92188l104.109375 0q16.03125 0 27.203125 3.640625q11.1875 3.640625 18.1875 10.234375q7.015625 6.59375 10.171875 15.671875q3.171875 9.0625 3.171875 19.921875zm-39.546875 0.640625q0 -5.0625 -1.421875 -8.703125q-1.421875 -3.640625 -4.703125 -5.953125q-3.265625 -2.328125 -8.546875 -3.4375q-5.265625 -1.109375 -12.953125 -1.109375l-56.53125 0l0 37.34375l56.53125 0q7.6875 0 12.953125 -0.890625q5.28125 -0.90625 8.546875 -3.0625q3.28125 -2.171875 4.703125 -5.640625q1.421875 -3.484375 1.421875 -8.546875z" fill-rule="nonzero"/><path fill="#c00000" d="m787.866 110.96958l0 0c0 -53.732655 42.72284 -97.29157 95.42413 -97.29157l0 0c25.308044 0 49.57953 10.250332 67.474976 28.496042c17.895508 18.245708 27.949097 42.992203 27.949097 68.79553l0 0c0 53.73266 -42.72284 97.29157 -95.42407 97.29157l0 0c-52.701294 0 -95.42413 -43.558914 -95.42413 -97.29157z" fill-rule="evenodd"/><path fill="#ffffff" d="m801.4908 111.850555l0 0c0 -45.832718 36.746277 -82.98748 82.075134 -82.98748l0 0c21.7677 0 42.64386 8.7432995 58.03595 24.30647c15.39209 15.563168 24.039246 36.67136 24.039246 58.68101l0 0c0 45.832718 -36.746338 82.98747 -82.075195 82.98747l0 0c-45.328857 0 -82.075134 -37.154755 -82.075134 -82.98747z" fill-rule="evenodd"/><path fill="#c00000" d="m815.2573 111.84336l0 0c0 -37.021255 30.292053 -67.03291 67.65918 -67.03291l0 0c17.944336 0 35.153748 7.062378 47.842285 19.633484c12.688599 12.571114 19.816956 29.621193 19.816956 47.39943l0 0c0 37.021263 -30.292053 67.03292 -67.65924 67.03292l0 0c-37.367126 0 -67.65918 -30.011658 -67.65918 -67.03292z" fill-rule="evenodd"/><path fill="#ffffff" d="m853.462 111.84336l0 0c0 -28.0251 22.931091 -50.743935 51.21808 -50.743935l0 0c13.583862 0 26.611328 5.346222 36.216614 14.862556c9.605225 9.516335 15.001404 22.423248 15.001404 35.88138l0 0c0 28.025108 -22.931091 50.743935 -51.218018 50.743935l0 0c-28.286987 0 -51.21808 -22.718826 -51.21808 -50.743935z" fill-rule="evenodd"/><path fill="#c00000" d="m862.58765 115.20157l29.253967 -9.682823l-0.25128174 -30.524925l18.33081 24.540619l29.253845 -9.683212l-17.924866 24.849762l18.331177 24.540375l-29.409058 -9.182617l-17.92456 24.84999l-0.2508545 -30.524933z" fill-rule="evenodd"/><path stroke="#c00000" stroke-width="1.0" stroke-linejoin="round" stroke-linecap="butt" d="m862.58765 115.20157l29.253967 -9.682823l-0.25128174 -30.524925l18.33081 24.540619l29.253845 -9.683212l-17.924866 24.849762l18.331177 24.540375l-29.409058 -9.182617l-17.92456 24.84999l-0.2508545 -30.524933z" fill-rule="evenodd"/></g></svg>