<svg version="1.1" viewBox="0.0 0.0 993.1679790026246 278.76115485564304" fill="none" stroke="none" stroke-linecap="square" stroke-miterlimit="10" xmlns:xlink="http://www.w3.org/1999/xlink" xmlns="http://www.w3.org/2000/svg"><clipPath id="p.0"><path d="m0 0l993.16797 0l0 278.76117l-993.16797 0l0 -278.76117z" clip-rule="nonzero"/></clipPath><g clip-path="url(#p.0)"><path fill="#000000" fill-opacity="0.0" d="m0 0l993.16797 0l0 278.76117l-993.16797 0z" fill-rule="evenodd"/><path fill="#000000" fill-opacity="0.0" d="m4.188038 215.11023l1097.1969 0l0 57.448822l-1097.1969 0z" fill-rule="evenodd"/><path fill="#000000" d="m33.813038 226.80211l0 7.171875l-5.53125 0l0 28.656235l-9.3125 0l0 -28.656235l-5.515625 0l0 -7.171875l20.359375 0zm23.315308 0l0 23.9375q0 4.078125 -0.265625 5.7343597q-0.265625 1.640625 -1.578125 3.375q-1.3125 1.734375 -3.453125 2.640625q-2.125 0.890625 -5.03125 0.890625q-3.203125 0 -5.65625 -1.0625q-2.453125 -1.0625 -3.671875 -2.765625q-1.21875 -1.703125 -1.453125 -3.5937347q-0.21875 -1.890625 -0.21875 -7.953125l0 -21.203125l9.328125 0l0 26.859375q0 2.3437347 0.25 2.9999847q0.25 0.65625 1.03125 0.65625q0.890625 0 1.140625 -0.71875q0.25 -0.71873474 0.25 -3.3906097l0 -26.40625l9.328125 0zm24.413822 0l0 35.82811l-8.171875 0l-4.84375 -16.29686l0 16.29686l-7.796879 0l0 -35.82811l7.796879 0l5.21875 16.125l0 -16.125l7.796875 0zm13.045364 0l0 35.82811l-9.3125 0l0 -35.82811l9.3125 0zm23.495895 10.84375l-8.65625 0l0 -2.65625q0 -1.859375 -0.34375 -2.359375q-0.328125 -0.515625 -1.09375 -0.515625q-0.84375 0 -1.28125 0.6875q-0.421875 0.671875 -0.421875 2.078125q0 1.78125 0.484375 2.703125q0.453125 0.90625 2.625 2.1875q6.21875 3.6875 7.84375 6.0625q1.609375 2.359375 1.609375 7.640625q0 3.8281097 -0.90625 5.6406097q-0.890625 1.8125 -3.453125 3.046875q-2.5625 1.21875 -5.96875 1.21875q-3.75 0 -6.390625 -1.40625q-2.640625 -1.421875 -3.46875 -3.609375q-0.8125 -2.203125 -0.8125 -6.2187347l0 -2.359375l8.65625 0l0 4.359375q0 2.0156097 0.359375 2.5937347q0.359375 0.578125 1.296875 0.578125q0.921875 0 1.375 -0.71875q0.453125 -0.73435974 0.453125 -2.1874847q0 -3.15625 -0.859375 -4.125q-0.875 -0.984375 -4.359375 -3.265625q-3.46875 -2.296875 -4.609375 -3.328125q-1.125 -1.046875 -1.875 -2.875q-0.734375 -1.84375 -0.734375 -4.703125q0 -4.109375 1.046875 -6.015625q1.0625 -1.90625 3.40625 -2.96875q2.34375 -1.078125 5.671875 -1.078125q3.625 0 6.171875 1.171875q2.5625 1.171875 3.390625 2.953125q0.84375 1.78125 0.84375 6.046875l0 1.421875zm13.001213 -10.84375l0 35.82811l-9.312492 0l0 -35.82811l9.312492 0zm19.839645 0l5.328125 35.82811l-9.53125 0l-0.46875 -6.4375l-3.34375 0l-0.546875 6.4375l-9.65625 0l4.734375 -35.82811l13.484375 0zm-4.9375 23.03125q-0.703125 -6.078125 -1.421875 -15.03125q-1.40625 10.28125 -1.765625 15.03125l3.1875 0zm32.67444 -23.03125l0 35.82811l-8.171875 0l-4.84375 -16.29686l0 16.29686l-7.796875 0l0 -35.82811l7.796875 0l5.21875 16.125l0 -16.125l7.796875 0zm31.47284 10.84375l-8.65625 0l0 -2.65625q0 -1.859375 -0.34375 -2.359375q-0.328125 -0.515625 -1.09375 -0.515625q-0.84375 0 -1.28125 0.6875q-0.421875 0.671875 -0.421875 2.078125q0 1.78125 0.484375 2.703125q0.453125 0.90625 2.625 2.1875q6.21875 3.6875 7.84375 6.0625q1.609375 2.359375 1.609375 7.640625q0 3.8281097 -0.90625 5.6406097q-0.890625 1.8125 -3.453125 3.046875q-2.5625 1.21875 -5.96875 1.21875q-3.75 0 -6.390625 -1.40625q-2.640625 -1.421875 -3.46875 -3.609375q-0.8125 -2.203125 -0.8125 -6.2187347l0 -2.359375l8.65625 0l0 4.359375q0 2.0156097 0.359375 2.5937347q0.359375 0.578125 1.296875 0.578125q0.921875 0 1.375 -0.71875q0.453125 -0.73435974 0.453125 -2.1874847q0 -3.15625 -0.859375 -4.125q-0.875 -0.984375 -4.359375 -3.265625q-3.46875 -2.296875 -4.609375 -3.328125q-1.125 -1.046875 -1.875 -2.875q-0.734375 -1.84375 -0.734375 -4.703125q0 -4.109375 1.046875 -6.015625q1.0625 -1.90625 3.40625 -2.96875q2.34375 -1.078125 5.671875 -1.078125q3.625 0 6.171875 1.171875q2.5625 1.171875 3.390625 2.953125q0.84375 1.78125 0.84375 6.046875l0 1.421875zm24.985596 10.140625q0 5.390625 -0.265625 7.640625q-0.25 2.2499847 -1.59375 4.1093597q-1.328125 1.859375 -3.609375 2.859375q-2.28125 0.984375 -5.3125 0.984375q-2.875 0 -5.171875 -0.9375q-2.296875 -0.9375 -3.6875 -2.8125q-1.390625 -1.890625 -1.65625 -4.0937347q-0.265625 -2.21875 -0.265625 -7.75l0 -6.140625q0 -5.390625 0.25 -7.640625q0.265625 -2.25 1.59375 -4.109375q1.34375 -1.859375 3.625 -2.84375q2.28125 -1.0 5.3125 -1.0q2.875 0 5.15625 0.9375q2.296875 0.9375 3.6875 2.828125q1.40625 1.875 1.671875 4.09375q0.265625 2.203125 0.265625 7.734375l0 6.140625zm-9.328125 -11.78125q0 -2.5 -0.28125 -3.1875q-0.265625 -0.703125 -1.125 -0.703125q-0.734375 0 -1.125 0.5625q-0.390625 0.5625 -0.390625 3.328125l0 16.734375q0 3.125 0.25 3.8593597q0.265625 0.71875 1.1875 0.71875q0.953125 0 1.21875 -0.84375q0.265625 -0.84373474 0.265625 -3.9999847l0 -16.46875zm34.547943 6.421875l-9.3125 0l0 -6.25q0 -2.71875 -0.296875 -3.390625q-0.296875 -0.671875 -1.3125 -0.671875q-1.15625 0 -1.46875 0.8125q-0.3125 0.8125 -0.3125 3.546875l0 16.640625q0 2.609375 0.3125 3.4062347q0.3125 0.796875 1.390625 0.796875q1.046875 0 1.359375 -0.796875q0.328125 -0.79685974 0.328125 -3.7343597l0 -4.5l9.3125 0l0 1.390625q0 5.5625 -0.78125 7.8906097q-0.78125 2.3125 -3.46875 4.0625q-2.6875 1.75 -6.640625 1.75q-4.09375 0 -6.75 -1.484375q-2.65625 -1.484375 -3.515625 -4.09375q-0.859375 -2.6249847 -0.859375 -7.8906097l0 -10.46875q0 -3.875 0.265625 -5.8125q0.265625 -1.9375 1.578125 -3.734375q1.328125 -1.796875 3.65625 -2.8125q2.328125 -1.03125 5.359375 -1.03125q4.125 0 6.796875 1.59375q2.6875 1.578125 3.515625 3.96875q0.84375 2.375 0.84375 7.40625l0 3.40625zm12.661194 -15.625l0 35.82811l-9.3125 0l0 -35.82811l9.3125 0zm3.7459106 0l15.53125 0l0 7.171875l-6.21875 0l0 6.78125l5.828125 0l0 6.828125l-5.828125 0l0 7.875l6.84375 0l0 7.1718597l-16.15625 0l0 -35.82811zm37.600708 0l0 7.171875l-5.53125 0l0 28.656235l-9.3125 0l0 -28.656235l-5.515625 0l0 -7.171875l20.359375 0zm21.987183 0l-6.796875 22.859375l0 12.968735l-8.640625 0l0 -12.968735l-6.546875 -22.859375l8.5625 0q2.015625 10.46875 2.265625 14.09375q0.765625 -5.734375 2.578125 -14.09375l8.578125 0zm30.874268 20.984375q0 5.390625 -0.265625 7.640625q-0.25 2.2499847 -1.59375 4.1093597q-1.328125 1.859375 -3.609375 2.859375q-2.28125 0.984375 -5.3125 0.984375q-2.875 0 -5.171875 -0.9375q-2.296875 -0.9375 -3.6875 -2.8125q-1.390625 -1.890625 -1.65625 -4.0937347q-0.265625 -2.21875 -0.265625 -7.75l0 -6.140625q0 -5.390625 0.25 -7.640625q0.265625 -2.25 1.59375 -4.109375q1.34375 -1.859375 3.625 -2.84375q2.28125 -1.0 5.3125 -1.0q2.875 0 5.15625 0.9375q2.296875 0.9375 3.6875 2.828125q1.40625 1.875 1.671875 4.09375q0.265625 2.203125 0.265625 7.734375l0 6.140625zm-9.328125 -11.78125q0 -2.5 -0.28125 -3.1875q-0.265625 -0.703125 -1.125 -0.703125q-0.734375 0 -1.125 0.5625q-0.390625 0.5625 -0.390625 3.328125l0 16.734375q0 3.125 0.25 3.8593597q0.265625 0.71875 1.1875 0.71875q0.953125 0 1.21875 -0.84375q0.265625 -0.84373474 0.265625 -3.9999847l0 -16.46875zm12.797943 -9.203125l15.78125 0l0 7.171875l-6.46875 0l0 6.78125l5.765625 0l0 6.828125l-5.765625 0l0 15.04686l-9.3125 0l0 -35.82811zm47.450165 0l0 35.82811l-9.3125 0l0 -15.04686l-2.796875 0l0 15.04686l-9.3125 0l0 -35.82811l9.3125 0l0 12.8125l2.796875 0l0 -12.8125l9.3125 0zm13.055725 0l0 35.82811l-9.3125 0l0 -35.82811l9.3125 0zm25.12091 13.1875l-9.3125 0l0 -3.25q0 -3.078125 -0.265625 -3.84375q-0.265625 -0.78125 -1.265625 -0.78125q-0.859375 0 -1.171875 0.671875q-0.3125 0.65625 -0.3125 3.390625l0 17.203125q0 2.40625 0.3125 3.1718597q0.3125 0.765625 1.234375 0.765625q1.03125 0 1.390625 -0.859375q0.359375 -0.85935974 0.359375 -3.3749847l0 -4.234375l-1.875 0l0 -5.453125l10.90625 0l0 19.23436l-5.859375 0l-0.859375 -2.5625q-0.953125 1.65625 -2.40625 2.484375q-1.453125 0.828125 -3.421875 0.828125q-2.34375 0 -4.390625 -1.140625q-2.046875 -1.140625 -3.109375 -2.8125q-1.0625 -1.6875 -1.328125 -3.5312347q-0.265625 -1.859375 -0.265625 -5.546875l0 -10.640625q0 -5.140625 0.546875 -7.46875q0.5625 -2.328125 3.1875 -4.25q2.625 -1.9375 6.78125 -1.9375q4.09375 0 6.796875 1.6875q2.703125 1.671875 3.515625 3.984375q0.8125 2.3125 0.8125 6.71875l0 1.546875zm25.034912 -13.1875l0 35.82811l-9.3125 0l0 -15.04686l-2.796875 0l0 15.04686l-9.3125 0l0 -35.82811l9.3125 0l0 12.8125l2.796875 0l0 -12.8125l9.3125 0zm11.733215 0l9.390625 0q3.796875 0 5.84375 0.59375q2.046875 0.59375 3.078125 1.734375q1.03125 1.125 1.390625 2.734375q0.375 1.59375 0.375 4.953125l0 3.125q0 3.4375 -0.71875 5.015625q-0.703125 1.5625 -2.59375 2.40625q-1.890625 0.828125 -4.953125 0.828125l-2.5 0l0 14.437485l-9.3125 0l0 -35.82811zm9.3125 6.125l0 9.125q0.40625 0.015625 0.6875 0.015625q1.28125 0 1.78125 -0.625q0.5 -0.640625 0.5 -2.625l0 -2.953125q0 -1.828125 -0.578125 -2.375q-0.578125 -0.5625 -2.390625 -0.5625zm13.440063 -6.125l15.531311 0l0 7.171875l-6.21875 0l0 6.78125l5.828125 0l0 6.828125l-5.828125 0l0 7.875l6.84375 0l0 7.1718597l-16.156311 0l0 -35.82811zm18.835144 0l6.59375 0q6.59375 0 8.921875 0.515625q2.34375 0.5 3.8125 2.59375q1.484375 2.09375 1.484375 6.671875q0 4.171875 -1.046875 5.625q-1.046875 1.4375 -4.09375 1.71875q2.765625 0.6875 3.71875 1.84375q0.953125 1.140625 1.1875 2.109375q0.234375 0.96875 0.234375 5.296875l0 9.45311l-8.65625 0l0 -11.906235q0 -2.875 -0.453125 -3.5625q-0.453125 -0.6875 -2.390625 -0.6875l0 16.156235l-9.3125 0l0 -35.82811zm9.3125 6.125l0 7.96875q1.578125 0 2.203125 -0.421875q0.640625 -0.4375 0.640625 -2.8125l0 -1.96875q0 -1.703125 -0.609375 -2.234375q-0.609375 -0.53125 -2.234375 -0.53125zm15.100098 -6.125l15.78125 0l0 7.171875l-6.46875 0l0 6.78125l5.765625 0l0 6.828125l-5.765625 0l0 15.04686l-9.3125 0l0 -35.82811zm39.335205 20.984375q0 5.390625 -0.265625 7.640625q-0.25 2.2499847 -1.59375 4.1093597q-1.328125 1.859375 -3.609375 2.859375q-2.28125 0.984375 -5.3125 0.984375q-2.875 0 -5.171875 -0.9375q-2.296875 -0.9375 -3.6875 -2.8125q-1.390625 -1.890625 -1.65625 -4.0937347q-0.265625 -2.21875 -0.265625 -7.75l0 -6.140625q0 -5.390625 0.25 -7.640625q0.265625 -2.25 1.59375 -4.109375q1.34375 -1.859375 3.625 -2.84375q2.28125 -1.0 5.3125 -1.0q2.875 0 5.15625 0.9375q2.296875 0.9375 3.6875 2.828125q1.40625 1.875 1.671875 4.09375q0.265625 2.203125 0.265625 7.734375l0 6.140625zm-9.328125 -11.78125q0 -2.5 -0.28125 -3.1875q-0.265625 -0.703125 -1.125 -0.703125q-0.734375 0 -1.125 0.5625q-0.390625 0.5625 -0.390625 3.328125l0 16.734375q0 3.125 0.25 3.8593597q0.265625 0.71875 1.1875 0.71875q0.953125 0 1.21875 -0.84375q0.265625 -0.84373474 0.265625 -3.9999847l0 -16.46875zm12.797974 -9.203125l6.59375 0q6.59375 0 8.921875 0.515625q2.34375 0.5 3.8125 2.59375q1.484375 2.09375 1.484375 6.671875q0 4.171875 -1.046875 5.625q-1.046875 1.4375 -4.09375 1.71875q2.765625 0.6875 3.71875 1.84375q0.953125 1.140625 1.1875 2.109375q0.234375 0.96875 0.234375 5.296875l0 9.45311l-8.65625 0l0 -11.906235q0 -2.875 -0.453125 -3.5625q-0.453125 -0.6875 -2.390625 -0.6875l0 16.156235l-9.3125 0l0 -35.82811zm9.3125 6.125l0 7.96875q1.578125 0 2.203125 -0.421875q0.640625 -0.4375 0.640625 -2.8125l0 -1.96875q0 -1.703125 -0.609375 -2.234375q-0.609375 -0.53125 -2.234375 -0.53125zm43.850098 -6.125l0 35.82811l-8.140625 0l0 -24.187485l-3.25 24.187485l-5.78125 0l-3.4375 -23.64061l0 23.64061l-8.140625 0l0 -35.82811l12.0625 0q0.53125 3.21875 1.125 7.609375l1.28125 9.125l2.125 -16.734375l12.15625 0zm19.834839 0l5.328125 35.82811l-9.53125 0l-0.46875 -6.4375l-3.34375 0l-0.546875 6.4375l-9.65625 0l4.734375 -35.82811l13.484375 0zm-4.9375 23.03125q-0.703125 -6.078125 -1.421875 -15.03125q-1.40625 10.28125 -1.765625 15.03125l3.1875 0zm32.67444 -23.03125l0 35.82811l-8.171875 0l-4.84375 -16.29686l0 16.29686l-7.796875 0l0 -35.82811l7.796875 0l5.21875 16.125l0 -16.125l7.796875 0zm25.48285 15.625l-9.3125 0l0 -6.25q0 -2.71875 -0.296875 -3.390625q-0.296875 -0.671875 -1.3125 -0.671875q-1.15625 0 -1.46875 0.8125q-0.3125 0.8125 -0.3125 3.546875l0 16.640625q0 2.609375 0.3125 3.4062347q0.3125 0.796875 1.390625 0.796875q1.046875 0 1.359375 -0.796875q0.328125 -0.79685974 0.328125 -3.7343597l0 -4.5l9.3125 0l0 1.390625q0 5.5625 -0.78125 7.8906097q-0.78125 2.3125 -3.46875 4.0625q-2.6875 1.75 -6.640625 1.75q-4.09375 0 -6.75 -1.484375q-2.65625 -1.484375 -3.515625 -4.09375q-0.859375 -2.6249847 -0.859375 -7.8906097l0 -10.46875q0 -3.875 0.265625 -5.8125q0.265625 -1.9375 1.578125 -3.734375q1.328125 -1.796875 3.65625 -2.8125q2.328125 -1.03125 5.359375 -1.03125q4.125 0 6.796875 1.59375q2.6875 1.578125 3.515625 3.96875q0.84375 2.375 0.84375 7.40625l0 3.40625zm3.3486938 -15.625l15.53125 0l0 7.171875l-6.21875 0l0 6.78125l5.828125 0l0 6.828125l-5.828125 0l0 7.875l6.84375 0l0 7.1718597l-16.15625 0l0 -35.82811zm48.575073 15.625l-9.3125 0l0 -6.25q0 -2.71875 -0.296875 -3.390625q-0.296875 -0.671875 -1.3125 -0.671875q-1.15625 0 -1.46875 0.8125q-0.3125 0.8125 -0.3125 3.546875l0 16.640625q0 2.609375 0.3125 3.4062347q0.3125 0.796875 1.390625 0.796875q1.046875 0 1.359375 -0.796875q0.328125 -0.79685974 0.328125 -3.7343597l0 -4.5l9.3125 0l0 1.390625q0 5.5625 -0.78125 7.8906097q-0.78125 2.3125 -3.46875 4.0625q-2.6875 1.75 -6.640625 1.75q-4.09375 0 -6.75 -1.484375q-2.65625 -1.484375 -3.515625 -4.09375q-0.859375 -2.6249847 -0.859375 -7.8906097l0 -10.46875q0 -3.875 0.265625 -5.8125q0.265625 -1.9375 1.578125 -3.734375q1.328125 -1.796875 3.65625 -2.8125q2.328125 -1.03125 5.359375 -1.03125q4.125 0 6.796875 1.59375q2.6875 1.578125 3.515625 3.96875q0.84375 2.375 0.84375 7.40625l0 3.40625zm24.645569 5.359375q0 5.390625 -0.265625 7.640625q-0.25 2.2499847 -1.59375 4.1093597q-1.328125 1.859375 -3.609375 2.859375q-2.28125 0.984375 -5.3125 0.984375q-2.875 0 -5.171875 -0.9375q-2.296875 -0.9375 -3.6875 -2.8125q-1.390625 -1.890625 -1.65625 -4.0937347q-0.265625 -2.21875 -0.265625 -7.75l0 -6.140625q0 -5.390625 0.25 -7.640625q0.265625 -2.25 1.59375 -4.109375q1.34375 -1.859375 3.625 -2.84375q2.28125 -1.0 5.3125 -1.0q2.875 0 5.15625 0.9375q2.296875 0.9375 3.6875 2.828125q1.40625 1.875 1.671875 4.09375q0.265625 2.203125 0.265625 7.734375l0 6.140625zm-9.328125 -11.78125q0 -2.5 -0.28125 -3.1875q-0.265625 -0.703125 -1.125 -0.703125q-0.734375 0 -1.125 0.5625q-0.390625 0.5625 -0.390625 3.328125l0 16.734375q0 3.125 0.25 3.8593597q0.265625 0.71875 1.1875 0.71875q0.953125 0 1.21875 -0.84375q0.265625 -0.84373474 0.265625 -3.9999847l0 -16.46875zm41.547913 -9.203125l0 35.82811l-8.140625 0l0 -24.187485l-3.25 24.187485l-5.78125 0l-3.4375 -23.64061l0 23.64061l-8.140625 0l0 -35.82811l12.0625 0q0.53125 3.21875 1.125 7.609375l1.28125 9.125l2.125 -16.734375l12.15625 0zm3.7410889 0l9.390625 0q3.796875 0 5.84375 0.59375q2.046875 0.59375 3.078125 1.734375q1.03125 1.125 1.390625 2.734375q0.375 1.59375 0.375 4.953125l0 3.125q0 3.4375 -0.71875 5.015625q-0.703125 1.5625 -2.59375 2.40625q-1.890625 0.828125 -4.953125 0.828125l-2.5 0l0 14.437485l-9.3125 0l0 -35.82811zm9.3125 6.125l0 9.125q0.40625 0.015625 0.6875 0.015625q1.28125 0 1.78125 -0.625q0.5 -0.640625 0.5 -2.625l0 -2.953125q0 -1.828125 -0.578125 -2.375q-0.578125 -0.5625 -2.390625 -0.5625zm34.627563 -6.125l0 23.9375q0 4.078125 -0.265625 5.7343597q-0.265625 1.640625 -1.578125 3.375q-1.3125 1.734375 -3.453125 2.640625q-2.125 0.890625 -5.03125 0.890625q-3.203125 0 -5.65625 -1.0625q-2.453125 -1.0625 -3.671875 -2.765625q-1.21875 -1.703125 -1.453125 -3.5937347q-0.21875 -1.890625 -0.21875 -7.953125l0 -21.203125l9.328125 0l0 26.859375q0 2.3437347 0.25 2.9999847q0.25 0.65625 1.03125 0.65625q0.890625 0 1.140625 -0.71875q0.25 -0.71873474 0.25 -3.3906097l0 -26.40625l9.328125 0zm22.366943 0l0 7.171875l-5.53125 0l0 28.656235l-9.3125 0l0 -28.656235l-5.515625 0l0 -7.171875l20.359375 0zm11.440308 0l0 35.82811l-9.3125 0l0 -35.82811l9.3125 0zm24.55841 0l0 35.82811l-8.171875 0l-4.84375 -16.29686l0 16.29686l-7.796875 0l0 -35.82811l7.796875 0l5.21875 16.125l0 -16.125l7.796875 0zm25.10785 13.1875l-9.3125 0l0 -3.25q0 -3.078125 -0.265625 -3.84375q-0.265625 -0.78125 -1.265625 -0.78125q-0.859375 0 -1.171875 0.671875q-0.3125 0.65625 -0.3125 3.390625l0 17.203125q0 2.40625 0.3125 3.1718597q0.3125 0.765625 1.234375 0.765625q1.03125 0 1.390625 -0.859375q0.359375 -0.85935974 0.359375 -3.3749847l0 -4.234375l-1.875 0l0 -5.453125l10.90625 0l0 19.23436l-5.859375 0l-0.859375 -2.5625q-0.953125 1.65625 -2.40625 2.484375q-1.453125 0.828125 -3.421875 0.828125q-2.34375 0 -4.390625 -1.140625q-2.046875 -1.140625 -3.109375 -2.8125q-1.0625 -1.6875 -1.328125 -3.5312347q-0.265625 -1.859375 -0.265625 -5.546875l0 -10.640625q0 -5.140625 0.546875 -7.46875q0.5625 -2.328125 3.1875 -4.25q2.625 -1.9375 6.78125 -1.9375q4.09375 0 6.796875 1.6875q2.703125 1.671875 3.515625 3.984375q0.8125 2.3125 0.8125 6.71875l0 1.546875z" fill-rule="nonzero"/><path fill="#000000" fill-opacity="0.0" d="m0.9212598 -30.75328l806.6457 0l0 289.3228l-806.6457 0z" fill-rule="evenodd"/><path fill="#c00000" d="m113.81188 72.23172l0 113.375l-39.125 0l0 -113.375l-61.499996 0l0 -31.546875l162.21875 0l0 31.546875l-61.593758 0zm220.95703 9.28125q-4.109375 -2.015625 -10.859375 -4.546875q-6.75 -2.53125 -15.296875 -4.796875q-8.546875 -2.265625 -18.5625 -3.796875q-10.015625 -1.53125 -20.5625 -1.53125q-8.4375 0 -14.40625 0.53125q-5.953125 0.53125 -10.015625 1.375q-4.0625 0.84375 -6.4375 1.953125q-2.375 1.109375 -3.640625 2.265625q-1.265625 1.15625 -1.640625 2.328125q-0.359375 1.15625 -0.359375 2.09375q0 3.171875 3.15625 5.546875q3.171875 2.375 8.65625 4.21875q5.484375 1.84375 12.765625 3.484375q7.28125 1.625 15.453125 3.375q8.171875 1.734375 16.875 3.796875q8.703125 2.046875 16.875 4.796875q8.171875 2.734375 15.4375 6.375q7.28125 3.640625 12.765625 8.5q5.484375 4.84375 8.640625 11.171875q3.171875 6.328125 3.171875 14.453125q0 10.4375 -3.6875 17.921875q-3.6875 7.484375 -9.859375 12.65625q-6.171875 5.171875 -14.296875 8.28125q-8.109375 3.109375 -17.03125 4.796875q-8.90625 1.6875 -18.03125 2.21875q-9.125 0.53125 -17.34375 0.53125q-21.515625 0 -39.828125 -3.546875q-18.296875 -3.53125 -32.3125 -8.796875l0 -34.59375q14.4375 8.015625 32.953125 12.546875q18.515625 4.53125 39.609375 4.53125q12.4375 0 20.296875 -1.3125q7.859375 -1.3125 12.28125 -3.375q4.4375 -2.0625 6.015625 -4.484375q1.578125 -2.421875 1.578125 -4.640625q0 -3.484375 -3.171875 -6.0625q-3.15625 -2.578125 -8.640625 -4.53125q-5.484375 -1.953125 -12.765625 -3.578125q-7.265625 -1.640625 -15.4375 -3.28125q-8.171875 -1.640625 -16.828125 -3.53125q-8.640625 -1.90625 -16.828125 -4.484375q-8.171875 -2.578125 -15.453125 -6.0q-7.265625 -3.4375 -12.75 -8.125q-5.484375 -4.703125 -8.65625 -10.875q-3.15625 -6.171875 -3.15625 -14.28125q0 -9.609375 3.375 -16.5625q3.375 -6.96875 9.125 -11.859375q5.75 -4.90625 13.28125 -7.96875q7.546875 -3.0625 15.875 -4.75q8.328125 -1.6875 16.875 -2.3125q8.546875 -0.640625 16.25 -0.640625q8.4375 0 17.34375 0.84375q8.90625 0.84375 17.546875 2.375q8.65625 1.53125 16.71875 3.53125q8.078125 2.0 14.9375 4.21875l0 33.546875zm187.73828 104.09375l0 -60.4375l-99.5625 0l0 60.4375l-39.140625 0l0 -144.92188l39.140625 0l0 52.734375l99.5625 0l0 -52.734375l39.125 0l0 144.92188l-39.125 0zm247.3125 -95.453125q0 10.859375 -3.171875 19.984375q-3.15625 9.125 -10.171875 15.71875q-7.0 6.59375 -18.1875 10.28125q-11.171875 3.6875 -27.203125 3.6875l-64.96875 0l0 45.78125l-39.140625 0l0 -144.92188l104.109375 0q16.03125 0 27.203125 3.640625q11.1875 3.640625 18.1875 10.234375q7.015625 6.59375 10.171875 15.671875q3.171875 9.0625 3.171875 19.921875zm-39.546875 0.640625q0 -5.0625 -1.421875 -8.703125q-1.421875 -3.640625 -4.703125 -5.953125q-3.265625 -2.328125 -8.546875 -3.4375q-5.265625 -1.109375 -12.953125 -1.109375l-56.53125 0l0 37.34375l56.53125 0q7.6875 0 12.953125 -0.890625q5.28125 -0.90625 8.546875 -3.0625q3.28125 -2.171875 4.703125 -5.640625q1.421875 -3.484375 1.421875 -8.546875z" fill-rule="nonzero"/><path fill="#c00000" d="m787.866 110.96958l0 0c0 -53.732655 42.72284 -97.29157 95.42413 -97.29157l0 0c25.308044 0 49.57953 10.250332 67.474976 28.496042c17.895508 18.245708 27.949097 42.992203 27.949097 68.79553l0 0c0 53.73266 -42.72284 97.29157 -95.42407 97.29157l0 0c-52.701294 0 -95.42413 -43.558914 -95.42413 -97.29157z" fill-rule="evenodd"/><path fill="#ffffff" d="m801.4908 111.850555l0 0c0 -45.832718 36.746277 -82.98748 82.075134 -82.98748l0 0c21.7677 0 42.64386 8.7432995 58.03595 24.30647c15.39209 15.563168 24.039246 36.67136 24.039246 58.68101l0 0c0 45.832718 -36.746338 82.98747 -82.075195 82.98747l0 0c-45.328857 0 -82.075134 -37.154755 -82.075134 -82.98747z" fill-rule="evenodd"/><path fill="#c00000" d="m815.2573 111.84336l0 0c0 -37.021255 30.292053 -67.03291 67.65918 -67.03291l0 0c17.944336 0 35.153748 7.062378 47.842285 19.633484c12.688599 12.571114 19.816956 29.621193 19.816956 47.39943l0 0c0 37.021263 -30.292053 67.03292 -67.65924 67.03292l0 0c-37.367126 0 -67.65918 -30.011658 -67.65918 -67.03292z" fill-rule="evenodd"/><path fill="#ffffff" d="m853.462 111.84336l0 0c0 -28.0251 22.931091 -50.743935 51.21808 -50.743935l0 0c13.583862 0 26.611328 5.346222 36.216614 14.862556c9.605225 9.516335 15.001404 22.423248 15.001404 35.88138l0 0c0 28.025108 -22.931091 50.743935 -51.218018 50.743935l0 0c-28.286987 0 -51.21808 -22.718826 -51.21808 -50.743935z" fill-rule="evenodd"/><path fill="#c00000" d="m862.58765 115.20157l29.253967 -9.682823l-0.25128174 -30.524925l18.33081 24.540619l29.253845 -9.683212l-17.924866 24.849762l18.331177 24.540375l-29.409058 -9.182617l-17.92456 24.84999l-0.2508545 -30.524933z" fill-rule="evenodd"/><path stroke="#c00000" stroke-width="1.0" stroke-linejoin="round" stroke-linecap="butt" d="m862.58765 115.20157l29.253967 -9.682823l-0.25128174 -30.524925l18.33081 24.540619l29.253845 -9.683212l-17.924866 24.849762l18.331177 24.540375l-29.409058 -9.182617l-17.92456 24.84999l-0.2508545 -30.524933z" fill-rule="evenodd"/></g></svg>